<svg width="32" height="46" viewBox="0 0 32 46" fill="none" xmlns="http://www.w3.org/2000/svg">
<path fill-rule="evenodd" clip-rule="evenodd" d="M16 0C15.5285 0 15.0763 0.242321 14.7429 0.673654C14.4095 1.10499 14.2222 1.69 14.2222 2.3V6.9H3.55556C2.61256 6.9 1.70819 7.38464 1.0414 8.24731C0.374602 9.10998 0 10.28 0 11.5V41.4C0 42.62 0.374602 43.79 1.0414 44.6527C1.70819 45.5154 2.61256 46 3.55556 46H28.4444C29.3874 46 30.2918 45.5154 30.9586 44.6527C31.6254 43.79 32 42.62 32 41.4V11.5C32 10.28 31.6254 9.10998 30.9586 8.24731C30.2918 7.38464 29.3874 6.9 28.4444 6.9H17.7778V2.3C17.7778 1.69 17.5905 1.10499 17.2571 0.673654C16.9237 0.242321 16.4715 0 16 0ZM17.7778 6.9V27.2044L21.0276 23C21.3609 22.5684 21.8131 22.3258 22.2847 22.3256C22.7563 22.3254 23.2086 22.5676 23.5422 22.9989C23.8758 23.4301 24.0633 24.0152 24.0635 24.6253C24.0636 25.2354 23.8765 25.8206 23.5431 26.2522L17.5698 33.9779C17.1531 34.5165 16.5881 34.8191 15.9991 34.8191C15.4101 34.8191 14.8451 34.5165 14.4284 33.9779L8.45689 26.2522C8.29183 26.0385 8.16092 25.7848 8.07164 25.5057C7.98236 25.2266 7.93645 24.9274 7.93653 24.6253C7.93661 24.3232 7.98269 24.0241 8.07212 23.745C8.16156 23.4659 8.2926 23.2124 8.45778 22.9989C8.62295 22.7853 8.81902 22.6159 9.03478 22.5004C9.25055 22.3849 9.48179 22.3255 9.71529 22.3256C9.9488 22.3257 10.18 22.3853 10.3957 22.5011C10.6114 22.6168 10.8074 22.7863 10.9724 23L14.2222 27.2044V6.9H17.7778Z" fill="black"/>
</svg>
