<svg width="34" height="39" viewBox="0 0 34 39" fill="none" xmlns="http://www.w3.org/2000/svg">
<path d="M17 0C14.7675 0 12.5569 0.516905 10.4944 1.5212C8.43185 2.5255 6.55778 3.99752 4.97918 5.85322C1.79107 9.60097 0 14.684 0 19.9841C0 28.8171 4.879 36.3112 11.628 38.969C12.478 39.1289 12.75 38.5094 12.75 37.9698V34.5925C8.041 35.7916 7.038 31.9146 7.038 31.9146C6.256 29.5965 5.151 28.977 5.151 28.977C3.604 27.738 5.27 27.7779 5.27 27.7779C6.97 27.9178 7.871 29.8363 7.871 29.8363C9.35 32.8739 11.849 31.9746 12.818 31.495C12.971 30.196 13.413 29.3167 13.889 28.8171C10.115 28.3175 6.154 26.5989 6.154 18.9849C6.154 16.7667 6.8 14.9881 7.905 13.5692C7.735 13.0696 7.14 10.9913 8.075 8.29341C8.075 8.29341 9.503 7.75384 12.75 10.3318C14.093 9.89214 15.555 9.67232 17 9.67232C18.445 9.67232 19.907 9.89214 21.25 10.3318C24.497 7.75384 25.925 8.29341 25.925 8.29341C26.86 10.9913 26.265 13.0696 26.095 13.5692C27.2 14.9881 27.846 16.7667 27.846 18.9849C27.846 26.6189 23.868 28.2975 20.077 28.7971C20.689 29.4166 21.25 30.6357 21.25 32.4942V37.9698C21.25 38.5094 21.522 39.1489 22.389 38.969C29.138 36.2912 34 28.8171 34 19.9841C34 17.3598 33.5603 14.7611 32.706 12.3365C31.8516 9.91195 30.5994 7.70891 29.0208 5.85322C27.4422 3.99752 25.5682 2.5255 23.5056 1.5212C21.4431 0.516905 19.2325 0 17 0Z" fill="black"/>
</svg>
