<svg width="33" height="39" viewBox="0 0 33 39" fill="none" xmlns="http://www.w3.org/2000/svg">
<path d="M29.3333 0C30.3058 0 31.2384 0.456546 31.9261 1.2692C32.6137 2.08186 33 3.18406 33 4.33333V34.6667C33 35.8159 32.6137 36.9181 31.9261 37.7308C31.2384 38.5435 30.3058 39 29.3333 39H3.66667C2.69421 39 1.76157 38.5435 1.07394 37.7308C0.386308 36.9181 0 35.8159 0 34.6667V4.33333C0 3.18406 0.386308 2.08186 1.07394 1.2692C1.76157 0.456546 2.69421 0 3.66667 0H29.3333ZM28.4167 33.5833V22.1C28.4167 20.2267 27.787 18.4301 26.6661 17.1055C25.5453 15.7808 24.0251 15.0367 22.44 15.0367C20.8817 15.0367 19.0667 16.1633 18.1867 17.8533V15.4483H13.0717V33.5833H18.1867V22.9017C18.1867 21.2333 19.3233 19.8683 20.735 19.8683C21.4157 19.8683 22.0686 20.1879 22.5499 20.7568C23.0313 21.3256 23.3017 22.0972 23.3017 22.9017V33.5833H28.4167ZM7.11333 12.0467C7.9302 12.0467 8.71361 11.6632 9.29122 10.9805C9.86883 10.2979 10.1933 9.37205 10.1933 8.40667C10.1933 6.39167 8.81833 4.745 7.11333 4.745C6.2916 4.745 5.50353 5.13078 4.92248 5.81748C4.34143 6.50417 4.015 7.43553 4.015 8.40667C4.015 10.4217 5.40833 12.0467 7.11333 12.0467ZM9.66167 33.5833V15.4483H4.58333V33.5833H9.66167Z" fill="black"/>
</svg>
